<svg xmlns="http://www.w3.org/2000/svg" xmlns:xlink="http://www.w3.org/1999/xlink" width="500" zoomAndPan="magnify" viewBox="0 0 375 374.999991" height="500" preserveAspectRatio="xMidYMid meet" version="1.0"><defs><clipPath id="53c81842c9"><path d="M 0.65625 0.777344 L 40.074219 0.777344 L 40.074219 158.28125 L 0.65625 158.28125 Z M 0.65625 0.777344 " clip-rule="nonzero"/></clipPath><clipPath id="2ed7409b5a"><path d="M 40.074219 20.484375 L 40.074219 138.457031 C 40.074219 143.683594 37.996094 148.695312 34.300781 152.390625 C 30.605469 156.089844 25.59375 158.164062 20.367188 158.164062 C 15.140625 158.164062 10.125 156.089844 6.429688 152.390625 C 2.734375 148.695312 0.65625 143.683594 0.65625 138.457031 L 0.65625 20.484375 C 0.65625 15.257812 2.734375 10.242188 6.429688 6.546875 C 10.125 2.851562 15.140625 0.777344 20.367188 0.777344 C 25.59375 0.777344 30.605469 2.851562 34.300781 6.546875 C 37.996094 10.242188 40.074219 15.257812 40.074219 20.484375 Z M 40.074219 20.484375 " clip-rule="nonzero"/></clipPath><clipPath id="307c022372"><path d="M 0.65625 0.777344 L 40.074219 0.777344 L 40.074219 158.28125 L 0.65625 158.28125 Z M 0.65625 0.777344 " clip-rule="nonzero"/></clipPath><clipPath id="5b4f9f4a94"><path d="M 40.074219 20.484375 L 40.074219 138.457031 C 40.074219 143.683594 37.996094 148.695312 34.300781 152.390625 C 30.605469 156.089844 25.59375 158.164062 20.367188 158.164062 C 15.140625 158.164062 10.125 156.089844 6.429688 152.390625 C 2.734375 148.695312 0.65625 143.683594 0.65625 138.457031 L 0.65625 20.484375 C 0.65625 15.257812 2.734375 10.242188 6.429688 6.546875 C 10.125 2.851562 15.140625 0.777344 20.367188 0.777344 C 25.59375 0.777344 30.605469 2.851562 34.300781 6.546875 C 37.996094 10.242188 40.074219 15.257812 40.074219 20.484375 Z M 40.074219 20.484375 " clip-rule="nonzero"/></clipPath><clipPath id="192414c4c3"><rect x="0" width="41" y="0" height="159"/></clipPath><clipPath id="cac5aa9827"><path d="M 56.460938 0.777344 L 95.878906 0.777344 L 95.878906 158.28125 L 56.460938 158.28125 Z M 56.460938 0.777344 " clip-rule="nonzero"/></clipPath><clipPath id="e1130e5b7e"><path d="M 95.878906 20.484375 L 95.878906 138.457031 C 95.878906 143.683594 93.800781 148.695312 90.105469 152.390625 C 86.410156 156.089844 81.398438 158.164062 76.171875 158.164062 C 70.941406 158.164062 65.929688 156.089844 62.234375 152.390625 C 58.539062 148.695312 56.460938 143.683594 56.460938 138.457031 L 56.460938 20.484375 C 56.460938 15.257812 58.539062 10.242188 62.234375 6.546875 C 65.929688 2.851562 70.941406 0.777344 76.171875 0.777344 C 81.398438 0.777344 86.410156 2.851562 90.105469 6.546875 C 93.800781 10.242188 95.878906 15.257812 95.878906 20.484375 Z M 95.878906 20.484375 " clip-rule="nonzero"/></clipPath><clipPath id="55bc9220fe"><path d="M 0.460938 0.777344 L 39.878906 0.777344 L 39.878906 158.28125 L 0.460938 158.28125 Z M 0.460938 0.777344 " clip-rule="nonzero"/></clipPath><clipPath id="788a0729ad"><path d="M 39.878906 20.484375 L 39.878906 138.457031 C 39.878906 143.683594 37.800781 148.695312 34.105469 152.390625 C 30.410156 156.089844 25.398438 158.164062 20.171875 158.164062 C 14.941406 158.164062 9.929688 156.089844 6.234375 152.390625 C 2.539062 148.695312 0.460938 143.683594 0.460938 138.457031 L 0.460938 20.484375 C 0.460938 15.257812 2.539062 10.242188 6.234375 6.546875 C 9.929688 2.851562 14.941406 0.777344 20.171875 0.777344 C 25.398438 0.777344 30.410156 2.851562 34.105469 6.546875 C 37.800781 10.242188 39.878906 15.257812 39.878906 20.484375 Z M 39.878906 20.484375 " clip-rule="nonzero"/></clipPath><clipPath id="f9c8ab64fa"><rect x="0" width="40" y="0" height="159"/></clipPath><clipPath id="d93508cac7"><path d="M 111.523438 0.777344 L 149.945312 0.777344 L 149.945312 158.203125 L 111.523438 158.203125 Z M 111.523438 0.777344 " clip-rule="nonzero"/></clipPath><clipPath id="0ae540a06d"><path d="M 149.945312 19.984375 L 149.945312 138.953125 C 149.945312 149.5625 141.34375 158.164062 130.734375 158.164062 C 120.125 158.164062 111.523438 149.5625 111.523438 138.953125 L 111.523438 19.984375 C 111.523438 9.375 120.125 0.777344 130.734375 0.777344 C 141.34375 0.777344 149.945312 9.375 149.945312 19.984375 Z M 149.945312 19.984375 " clip-rule="nonzero"/></clipPath><clipPath id="695208f967"><path d="M 0.523438 0.777344 L 38.945312 0.777344 L 38.945312 158.203125 L 0.523438 158.203125 Z M 0.523438 0.777344 " clip-rule="nonzero"/></clipPath><clipPath id="f55acea0a2"><path d="M 38.945312 19.984375 L 38.945312 138.953125 C 38.945312 149.5625 30.34375 158.164062 19.734375 158.164062 C 9.125 158.164062 0.523438 149.5625 0.523438 138.953125 L 0.523438 19.984375 C 0.523438 9.375 9.125 0.777344 19.734375 0.777344 C 30.34375 0.777344 38.945312 9.375 38.945312 19.984375 Z M 38.945312 19.984375 " clip-rule="nonzero"/></clipPath><clipPath id="d2817a96bb"><rect x="0" width="39" y="0" height="159"/></clipPath><clipPath id="6969f35d68"><path d="M 165.589844 0.777344 L 206.34375 0.777344 L 206.34375 158.210938 L 165.589844 158.210938 Z M 165.589844 0.777344 " clip-rule="nonzero"/></clipPath><clipPath id="ab80366793"><path d="M 206.34375 21.152344 L 206.34375 137.789062 C 206.34375 149.042969 197.21875 158.164062 185.964844 158.164062 C 174.710938 158.164062 165.589844 149.042969 165.589844 137.789062 L 165.589844 21.152344 C 165.589844 9.898438 174.710938 0.777344 185.964844 0.777344 C 197.21875 0.777344 206.34375 9.898438 206.34375 21.152344 Z M 206.34375 21.152344 " clip-rule="nonzero"/></clipPath><clipPath id="318dee4c4a"><path d="M 0.589844 0.777344 L 41.34375 0.777344 L 41.34375 158.210938 L 0.589844 158.210938 Z M 0.589844 0.777344 " clip-rule="nonzero"/></clipPath><clipPath id="5b15aefa0c"><path d="M 41.34375 21.152344 L 41.34375 137.789062 C 41.34375 149.042969 32.21875 158.164062 20.964844 158.164062 C 9.710938 158.164062 0.589844 149.042969 0.589844 137.789062 L 0.589844 21.152344 C 0.589844 9.898438 9.710938 0.777344 20.964844 0.777344 C 32.21875 0.777344 41.34375 9.898438 41.34375 21.152344 Z M 41.34375 21.152344 " clip-rule="nonzero"/></clipPath><clipPath id="a308143c06"><rect x="0" width="42" y="0" height="159"/></clipPath><clipPath id="d5ca605fa9"><rect x="0" width="207" y="0" height="159"/></clipPath></defs><rect x="-37.5" width="450" fill="#ffffff" y="-37.499999" height="449.999989" fill-opacity="1"/><rect x="-37.5" width="450" fill="#fafafa" y="-37.499999" height="449.999989" fill-opacity="1"/><g transform="matrix(1, 0, 0, 1, 84, 108)"><g clip-path="url(#d5ca605fa9)"><g clip-path="url(#53c81842c9)"><g clip-path="url(#2ed7409b5a)"><g><g clip-path="url(#192414c4c3)"><g clip-path="url(#307c022372)"><g clip-path="url(#5b4f9f4a94)"><path fill="#1e3a5f" d="M 0.65625 0.777344 L 40.074219 0.777344 L 40.074219 158.128906 L 0.65625 158.128906 Z M 0.65625 0.777344 " fill-opacity="1" fill-rule="nonzero"/></g></g></g></g></g></g><g clip-path="url(#cac5aa9827)"><g clip-path="url(#e1130e5b7e)"><g transform="matrix(1, 0, 0, 1, 56, 0)"><g clip-path="url(#f9c8ab64fa)"><g clip-path="url(#55bc9220fe)"><g clip-path="url(#788a0729ad)"><path fill="#1e3a5f" d="M 0.460938 0.777344 L 39.878906 0.777344 L 39.878906 158.128906 L 0.460938 158.128906 Z M 0.460938 0.777344 " fill-opacity="1" fill-rule="nonzero"/></g></g></g></g></g></g><g clip-path="url(#d93508cac7)"><g clip-path="url(#0ae540a06d)"><g transform="matrix(1, 0, 0, 1, 111, 0)"><g clip-path="url(#d2817a96bb)"><g clip-path="url(#695208f967)"><g clip-path="url(#f55acea0a2)"><path fill="#1e3a5f" d="M 0.523438 0.777344 L 38.945312 0.777344 L 38.945312 158.203125 L 0.523438 158.203125 Z M 0.523438 0.777344 " fill-opacity="1" fill-rule="nonzero"/></g></g></g></g></g></g><g clip-path="url(#6969f35d68)"><g clip-path="url(#ab80366793)"><g transform="matrix(1, 0, 0, 1, 165, 0)"><g clip-path="url(#a308143c06)"><g clip-path="url(#318dee4c4a)"><g clip-path="url(#5b15aefa0c)"><path fill="#3a9eaf" d="M 0.589844 0.777344 L 41.34375 0.777344 L 41.34375 158.210938 L 0.589844 158.210938 Z M 0.589844 0.777344 " fill-opacity="1" fill-rule="nonzero"/></g></g></g></g></g></g></g></g></svg>